<svg xmlns="http://www.w3.org/2000/svg" width="38" height="42" viewBox="0 0 38 42" fill="none">
    <path d="M12 35V39.4C12 39.9601 12 40.2401 11.891 40.454C11.7951 40.6422 11.6422 40.7951 11.454 40.891C11.2401 41 10.9601 41 10.4 41H6.6C6.03995 41 5.75992 41 5.54601 40.891C5.35785 40.7951 5.20487 40.6422 5.10899 40.454C5 40.2401 5 39.9601 5 39.4V35M33 35V39.4C33 39.9601 33 40.2401 32.891 40.454C32.7951 40.6422 32.6422 40.7951 32.454 40.891C32.2401 41 31.9601 41 31.4 41H27.6C27.0399 41 26.7599 41 26.546 40.891C26.3578 40.7951 26.2049 40.6422 26.109 40.454C26 40.2401 26 39.9601 26 39.4V35M1 21H37M1 8H37M8 28H11M27 28H30M10.6 35H27.4C30.7603 35 32.4405 35 33.7239 34.346C34.8529 33.7708 35.7708 32.8529 36.346 31.7239C37 30.4405 37 28.7603 37 25.4V10.6C37 7.23968 37 5.55953 36.346 4.27606C35.7708 3.14708 34.8529 2.2292 33.7239 1.65396C32.4405 1 30.7603 1 27.4 1H10.6C7.23969 1 5.55953 1 4.27606 1.65396C3.14708 2.2292 2.2292 3.14708 1.65396 4.27606C1 5.55953 1 7.23968 1 10.6V25.4C1 28.7603 1 30.4405 1.65396 31.7239C2.2292 32.8529 3.14708 33.7708 4.27606 34.346C5.55953 35 7.23968 35 10.6 35Z" stroke="black" stroke-opacity="0.6" stroke-linecap="round" stroke-linejoin="round"/>
</svg>