<svg xmlns="http://www.w3.org/2000/svg" width="46" height="50" viewBox="0 0 46 50" fill="none">
    <path d="M9.55556 43.788H5.88889C3.18883 43.788 1 41.6595 1 39.0338V5.75423C1 3.12854 3.18883 1 5.88889 1H40.1111C42.8112 1 45 3.12854 45 5.75423V39.0338C45 41.6595 42.8112 43.788 40.1111 43.788H36.4444M23 41.4109C27.0501 41.4109 30.3333 38.2181 30.3333 34.2796C30.3333 30.3411 27.0501 27.1482 23 27.1482C18.9499 27.1482 15.6667 30.3411 15.6667 34.2796C15.6667 38.2181 18.9499 41.4109 23 41.4109ZM23 41.4109L23.0524 41.4104L15.2479 49L8.33393 42.2765L15.7147 35.099M23 41.4109L30.8047 49L37.7186 42.2765L30.3378 35.099M15.6667 10.5085H30.3333M10.7778 18.8283H35.2222" stroke="black" stroke-opacity="0.6" stroke-linecap="round" stroke-linejoin="round"/>
</svg>