<svg xmlns="http://www.w3.org/2000/svg" width="68" height="68" viewBox="0 0 68 68" fill="none">
    <path d="M23 34H6.86667C4.81314 34 3.78638 34 3.00203 34.3996C2.31211 34.7512 1.75118 35.3121 1.39964 36.002C1 36.7864 1 37.8131 1 39.8667V61.1333C1 63.1869 1 64.2136 1.39964 64.998C1.75118 65.6879 2.31211 66.2488 3.00204 66.6004C3.78638 67 4.81314 67 6.86667 67H23M23 67H45M23 67L23 21.5333C23 19.4798 23 18.453 23.3996 17.6687C23.7512 16.9788 24.3121 16.4178 25.002 16.0663C25.7864 15.6667 26.8131 15.6667 28.8667 15.6667H39.1333C41.1869 15.6667 42.2136 15.6667 42.998 16.0663C43.6879 16.4178 44.2488 16.9788 44.6004 17.6687C45 18.453 45 19.4798 45 21.5333V67M45 67H61.1333C63.1869 67 64.2136 67 64.998 66.6004C65.6879 66.2488 66.2488 65.6879 66.6004 64.998C67 64.2136 67 63.1869 67 61.1333V6.86667C67 4.81314 67 3.78638 66.6004 3.00204C66.2488 2.31211 65.6879 1.75118 64.998 1.39964C64.2136 1 63.1869 1 61.1333 1H50.8667C48.8131 1 47.7864 1 47.002 1.39964C46.3121 1.75118 45.7512 2.31211 45.3996 3.00204C45 3.78638 45 4.81314 45 6.86667V19.3333" stroke="#8B7217" stroke-width="2" stroke-linecap="round" stroke-linejoin="round"/>
</svg>