<svg xmlns="http://www.w3.org/2000/svg" width="41" height="43" viewBox="0 0 41 43" fill="none">
    <path d="M25.0467 10.1109H37.8571C38.8075 10.1109 39.2827 10.1109 39.5606 10.3138C39.8031 10.4909 39.961 10.7634 39.9956 11.0647C40.0353 11.4099 39.8045 11.8318 39.343 12.6755L36.2206 18.3835C36.0533 18.6895 35.9696 18.8425 35.9368 19.0045C35.9077 19.1479 35.9077 19.2958 35.9368 19.4393C35.9696 19.6013 36.0533 19.7543 36.2206 20.0603L39.343 25.7682C39.8045 26.612 40.0353 27.0339 39.9956 27.3791C39.961 27.6804 39.8031 27.9529 39.5606 28.13C39.2827 28.3329 38.8075 28.3329 37.8571 28.3329H21.718C20.528 28.3329 19.9331 28.3329 19.4786 28.0977C19.0788 27.8908 18.7537 27.5607 18.55 27.1547C18.3184 26.6931 18.3184 26.0888 18.3184 24.8803V19.2219M10.4689 42L1.49786 5.55597M4.86208 19.222H21.6472C22.8371 19.222 23.4321 19.222 23.8866 18.9868C24.2864 18.7799 24.6114 18.4498 24.8151 18.0438C25.0467 17.5822 25.0467 16.9779 25.0467 15.7694V4.45259C25.0467 3.24407 25.0467 2.63981 24.8151 2.17822C24.6114 1.77219 24.2864 1.44208 23.8866 1.23519C23.4321 1 22.8371 1 21.6472 1H4.73049C3.24633 1 2.50426 1 1.9967 1.31232C1.55185 1.58605 1.22132 2.016 1.06774 2.5207C0.892504 3.09653 1.07249 3.82769 1.43246 5.29L4.86208 19.222Z" stroke="black" stroke-opacity="0.6" stroke-linecap="round" stroke-linejoin="round"/>
</svg>