<svg xmlns="http://www.w3.org/2000/svg" width="68" height="68" viewBox="0 0 68 68" fill="none">
    <path d="M34 17.5H19.15C16.962 17.5 14.8635 16.6308 13.3164 15.0836C11.7692 13.5365 10.9 11.438 10.9 9.25C10.9 7.06196 11.7692 4.96354 13.3164 3.41637C14.8635 1.86919 16.962 1 19.15 1C30.7 1 34 17.5 34 17.5ZM34 17.5H48.85C51.038 17.5 53.1365 16.6308 54.6836 15.0836C56.2308 13.5365 57.1 11.438 57.1 9.25C57.1 7.06196 56.2308 4.96354 54.6836 3.41637C53.1365 1.86919 51.038 1 48.85 1C37.3 1 34 17.5 34 17.5ZM34 17.5L34 67M1 40.6H67M1 28.06L1 56.44C1 60.1363 1 61.9845 1.71936 63.3963C2.35212 64.6382 3.36179 65.6479 4.60366 66.2806C6.01548 67 7.86365 67 11.56 67L56.44 67C60.1363 67 61.9845 67 63.3963 66.2806C64.6382 65.6479 65.6479 64.6382 66.2806 63.3963C67 61.9845 67 60.1363 67 56.44V28.06C67 24.3637 67 22.5155 66.2806 21.1037C65.6479 19.8618 64.6382 18.8521 63.3963 18.2194C61.9845 17.5 60.1363 17.5 56.44 17.5L11.56 17.5C7.86366 17.5 6.01548 17.5 4.60366 18.2194C3.36179 18.8521 2.35212 19.8618 1.71936 21.1037C1 22.5155 1 24.3637 1 28.06Z" stroke="#2047A9" stroke-width="2" stroke-linecap="round" stroke-linejoin="round"/>
</svg>