<svg xmlns="http://www.w3.org/2000/svg" width="38" height="42" viewBox="0 0 38 42" fill="none">
    <path d="M13 34H25M9 27H29M5 1H33C35.2091 1 37 2.98985 37 5.44444V36.5556C37 39.0102 35.2091 41 33 41H5C2.79086 41 1 39.0102 1 36.5556V5.44444C1 2.98985 2.79086 1 5 1ZM18.9952 9.42388C17.5957 7.8656 15.2618 7.44643 13.5083 8.87334C11.7548 10.3003 11.5079 12.686 12.8849 14.3736C14.262 16.0612 18.9952 20 18.9952 20C18.9952 20 23.7284 16.0612 25.1055 14.3736C26.4825 12.686 26.2658 10.2852 24.4821 8.87334C22.6984 7.46144 20.3948 7.8656 18.9952 9.42388Z" stroke="black" stroke-opacity="0.6" stroke-linecap="round" stroke-linejoin="round"/>
</svg>