<svg xmlns="http://www.w3.org/2000/svg" width="68" height="68" viewBox="0 0 68 68" fill="none">
    <path d="M24.1 24.1H24.133M43.9 43.9H43.933M47.2 20.8L20.8 47.2M25.75 24.1C25.75 25.0113 25.0113 25.75 24.1 25.75C23.1887 25.75 22.45 25.0113 22.45 24.1C22.45 23.1887 23.1887 22.45 24.1 22.45C25.0113 22.45 25.75 23.1887 25.75 24.1ZM45.55 43.9C45.55 44.8113 44.8113 45.55 43.9 45.55C42.9887 45.55 42.25 44.8113 42.25 43.9C42.25 42.9887 42.9887 42.25 43.9 42.25C44.8113 42.25 45.55 42.9887 45.55 43.9ZM67 34C67 52.2254 52.2254 67 34 67C15.7746 67 1 52.2254 1 34C1 15.7746 15.7746 1 34 1C52.2254 1 67 15.7746 67 34Z" stroke="#B20931" stroke-width="2" stroke-linecap="round" stroke-linejoin="round"/>
</svg>